<svg version="1.1" viewBox="0.0 0.0 53.0 53.0" fill="none" stroke="none" stroke-linecap="square" stroke-miterlimit="10" xmlns:xlink="http://www.w3.org/1999/xlink" xmlns="http://www.w3.org/2000/svg"><clipPath id="p.0"><path d="m0 0l53.0 0l0 53.0l-53.0 0l0 -53.0z" clip-rule="nonzero"/></clipPath><g clip-path="url(#p.0)"><path fill="#000000" fill-opacity="0.0" d="m0 0l53.0 0l0 53.0l-53.0 0z" fill-rule="evenodd"/><path fill="#000000" fill-opacity="0.0" d="m2.9107547 6.515748l47.181103 0l0 39.968506l-47.181103 0z" fill-rule="evenodd"/><path fill="#ff0000" d="m11.035754 13.047623l-3.5468745 0l0 -1.1875q0 -0.578125 -0.0625 -0.671875q-0.0625 -0.09375 -0.203125 -0.09375q-0.15625 0 -0.25 0.15625q-0.09375 0.15625 -0.09375 0.578125q0 0.5625 0.140625 0.84375q0.125 0.25 0.828125 0.65625q2.2499995 1.34375 2.8437495 2.21875q0.625 0.90625 0.625 2.84375q0 1.40625 -0.359375 2.109375q-0.34375 0.703125 -1.3125 1.171875q-0.96875 0.46875 -2.2343745 0.46875q-1.375 0 -2.390625 -0.53125q-1.0 -0.546875 -1.3125 -1.375q-0.3125 -0.84375 -0.3125 -2.3125l0 -1.078125l3.5625 0l0 1.78125q0 0.640625 0.0625 0.765625q0.078125 0.109375 0.265625 0.109375q0.1875 0 0.296875 -0.171875q0.109375 -0.171875 0.109375 -0.609375q0 -1.015625 -0.25 -1.28125q-0.296875 -0.328125 -1.484375 -1.125q-1.25 -0.8125 -1.6875 -1.203125q-0.421875 -0.40625 -0.703125 -1.09375q-0.265625 -0.703125 -0.265625 -1.75q0 -1.515625 0.390625 -2.25q0.40625 -0.734375 1.296875 -1.140625q0.890625 -0.421875 2.125 -0.421875q1.3281245 0 2.2968745 0.453125q0.984375 0.4375 1.296875 1.140625q0.328125 0.703125 0.328125 2.25l0 0.75zm5.8359385 -4.328125l0 8.703125q0 1.921875 -0.046875 2.5q-0.03125 0.578125 -0.40625 1.078125q-0.359375 0.5 -0.96875095 0.6875q-0.59375 0.1875 -1.71875 0.1875l-1.90625 0l0 -2.75q0.5625 0.0625 0.6875 0.0625q0.25 0 0.375 -0.109375q0.140625 -0.109375 0.15625 -0.296875q0.03125 -0.203125 0.03125 -0.90625l0 -9.15625l3.796876 0zm9.453125 6.015625l-3.796875 0l0 -2.453125q0 -0.90625 -0.0625 -1.046875q-0.0625 -0.140625 -0.25 -0.140625q-0.234375 0 -0.3125 0.1875q-0.0625 0.1875 -0.0625 1.109375l0 5.875q0 0.875 0.0625 1.0625q0.078125 0.171875 0.28125 0.171875q0.203125 0 0.265625 -0.171875q0.078125 -0.1875 0.078125 -1.1875l0 -1.828125l3.796875 0l0 0.734375q0 2.015625 -0.3125 2.890625q-0.296875 0.875 -1.3125 1.546875q-1.0 0.65625 -2.46875 0.65625q-1.515625 0 -2.53125 -0.5625q-1.0 -0.5625 -1.328125 -1.546875q-0.328125 -1.0 -0.328125 -2.90625l0 -3.6875q0 -1.390625 0.09375 -2.109375q0.109375 -0.71875 0.609375 -1.40625q0.515625 -0.6875 1.390625 -1.078125q0.875 -0.390625 2.0 -0.390625q1.515625 0 2.53125 0.609375q1.015625 0.59375 1.328125 1.5q0.328125 0.90625 0.328125 2.71875l0 1.453125zm9.1875 1.640625q0 1.921875 -0.09375 2.765625q-0.09375 0.828125 -0.609375 1.546875q-0.515625 0.703125 -1.375 1.078125q-0.859375 0.375 -1.96875 0.375q-1.0625 0 -1.9375 -0.359375q-0.859375 -0.359375 -1.390625 -1.078125q-0.53125 -0.71875 -0.640625 -1.53125q-0.09375 -0.828125 -0.09375 -2.796875l0 -2.15625q0 -1.921875 0.09375 -2.75q0.109375 -0.84375 0.609375 -1.546875q0.515625 -0.71875 1.375 -1.09375q0.859375 -0.375 1.984375 -0.375q1.0625 0 1.921875 0.359375q0.859375 0.359375 1.390625 1.078125q0.53125 0.71875 0.625 1.546875q0.109375 0.8125 0.109375 2.78125l0 2.15625zm-3.78125 -4.15625q0 -0.828125 -0.0625 -0.96875q-0.0625 -0.15625 -0.1875 -0.15625q-0.125 0 -0.203125 0.125q-0.078125 0.109375 -0.078125 1.0l0 5.90625q0 1.0625 0.046875 1.21875q0.0625 0.15625 0.203125 0.15625q0.15625 0 0.21875 -0.1875q0.0625 -0.1875 0.0625 -1.28125l0 -5.8125zm5.0078125 -3.5l5.984375 0l0 3.03125l-2.1875 0l0 1.90625l2.046875 0l0 2.90625l-2.046875 0l0 2.28125l2.40625 0l0 3.03125l-6.203125 0l0 -13.15625z" fill-rule="nonzero"/><path fill="#ff0000" d="m3.5670047 28.419497l5.5781245 0l0 2.53125l-2.2812495 0l0 2.406248l2.0312495 0l0 2.40625l-2.0312495 0l0 5.3125l-3.296875 0l0 -12.656248z" fill-rule="nonzero"/><path fill="#ff9900" d="m12.668567 34.71637l-2.96875 0l0 -0.6875q0 -1.203125 0.28125 -1.859375q0.28125 -0.6562481 1.109375 -1.1562481q0.84375 -0.5 2.171875 -0.5q1.609375 0 2.421875 0.578125q0.81250095 0.5625 0.96875095 1.3906231q0.171875 0.8125 0.171875 3.390625l0 5.203125l-3.078126 0l0 -0.921875q-0.28125 0.546875 -0.75 0.828125q-0.453125 0.28125 -1.078125 0.28125q-0.828125 0 -1.53125 -0.46875q-0.6875 -0.46875 -0.6875 -2.03125l0 -0.859375q0 -1.15625 0.359375 -1.578125q0.375 -0.421875 1.828125 -0.984375q1.5625 -0.609375 1.671875 -0.8125q0.109375 -0.21875 0.109375 -0.875q0 -0.8125 -0.125 -1.046875q-0.125 -0.25 -0.40625 -0.25q-0.3125 0 -0.390625 0.203125q-0.078125 0.203125 -0.078125 1.078125l0 1.078125zm1.0 1.421875q-0.765625 0.5625 -0.890625 0.9375q-0.109375 0.375 -0.109375 1.078125q0 0.796875 0.09375 1.03125q0.109375 0.234375 0.421875 0.234375q0.296875 0 0.390625 -0.171875q0.09375 -0.1875 0.09375 -0.96875l0 -2.140625z" fill-rule="nonzero"/><path fill="#ffff00" d="m21.059193 28.419497l0 3.0q0.390625 -0.453125 0.875 -0.671875q0.484375 -0.234375 1.046875 -0.234375q0.640625 0 1.109375 0.203125q0.484375 0.203125 0.734375 0.578125q0.25 0.359375 0.296875 0.7187481q0.0625 0.34375 0.0625 1.5l0 4.671875q0 1.140625 -0.15625 1.703125q-0.15625 0.546875 -0.71875 0.96875q-0.5625 0.40625 -1.328125 0.40625q-0.5625 0 -1.046875 -0.234375q-0.46875 -0.25 -0.875 -0.734375l-0.203125 0.78125l-2.953125 0l0 -12.656248l3.15625 0zm0.96875 5.234373q0 -0.8125 -0.109375 -1.046875q-0.09375 -0.25 -0.390625 -0.25q-0.296875 0 -0.390625 0.21875q-0.078125 0.203125 -0.078125 1.078125l0 4.46875q0 0.828125 0.09375 1.0625q0.109375 0.234375 0.390625 0.234375q0.296875 0 0.390625 -0.234375q0.09375 -0.25 0.09375 -1.171875l0 -4.359375z" fill-rule="nonzero"/><path fill="#0000ff" d="m29.606068 28.419497l0 10.124998l2.0 0l0 2.53125l-5.296875 0l0 -12.656248l3.296875 0z" fill-rule="nonzero"/><path fill="#00ff00" d="m35.129505 34.71637l-2.96875 0l0 -0.6875q0 -1.203125 0.28125 -1.859375q0.28125 -0.6562481 1.109375 -1.1562481q0.84375 -0.5 2.171875 -0.5q1.609375 0 2.421875 0.578125q0.8125 0.5625 0.96875 1.3906231q0.171875 0.8125 0.171875 3.390625l0 5.203125l-3.078125 0l0 -0.921875q-0.28125 0.546875 -0.75 0.828125q-0.453125 0.28125 -1.078125 0.28125q-0.828125 0 -1.53125 -0.46875q-0.6875 -0.46875 -0.6875 -2.03125l0 -0.859375q0 -1.15625 0.359375 -1.578125q0.375 -0.421875 1.828125 -0.984375q1.5625 -0.609375 1.671875 -0.8125q0.109375 -0.21875 0.109375 -0.875q0 -0.8125 -0.125 -1.046875q-0.125 -0.25 -0.40625 -0.25q-0.3125 0 -0.390625 0.203125q-0.078125 0.203125 -0.078125 1.078125l0 1.078125zm1.0 1.421875q-0.765625 0.5625 -0.890625 0.9375q-0.109375 0.375 -0.109375 1.078125q0 0.796875 0.09375 1.03125q0.109375 0.234375 0.421875 0.234375q0.296875 0 0.390625 -0.171875q0.09375 -0.1875 0.09375 -0.96875l0 -2.140625z" fill-rule="nonzero"/><path fill="#9900ff" d="m43.52013 28.419497l0 3.0q0.390625 -0.453125 0.875 -0.671875q0.484375 -0.234375 1.046875 -0.234375q0.640625 0 1.109375 0.203125q0.484375 0.203125 0.734375 0.578125q0.25 0.359375 0.296875 0.7187481q0.0625 0.34375 0.0625 1.5l0 4.671875q0 1.140625 -0.15625 1.703125q-0.15625 0.546875 -0.71875 0.96875q-0.5625 0.40625 -1.328125 0.40625q-0.5625 0 -1.046875 -0.234375q-0.46875 -0.25 -0.875 -0.734375l-0.203125 0.78125l-2.953125 0l0 -12.656248l3.15625 0zm0.96875 5.234373q0 -0.8125 -0.109375 -1.046875q-0.09375 -0.25 -0.390625 -0.25q-0.296875 0 -0.390625 0.21875q-0.078125 0.203125 -0.078125 1.078125l0 4.46875q0 0.828125 0.09375 1.0625q0.109375 0.234375 0.390625 0.234375q0.296875 0 0.390625 -0.234375q0.09375 -0.25 0.09375 -1.171875l0 -4.359375z" fill-rule="nonzero"/></g></svg>